<?xml version="1.0" standalone="no"?>
<!DOCTYPE svg PUBLIC "-//W3C//DTD SVG 20010904//EN"
 "http://www.w3.org/TR/2001/REC-SVG-20010904/DTD/svg10.dtd">
<svg version="1.0" xmlns="http://www.w3.org/2000/svg"
 width="1000.000000pt" height="800.000000pt" viewBox="0 0 1000.000000 800.000000"
 preserveAspectRatio="xMidYMid meet">
<metadata>
Created by potrace 1.16, written by Peter Selinger 2001-2019
</metadata>
<g transform="translate(0.000000,800.000000) scale(0.100000,-0.100000)"
fill="#000000" stroke="none">
<path d="M2733 4728 l-143 -82 0 -613 0 -614 148 3 147 3 0 38 c0 20 2 37 4
37 2 0 20 -13 40 -29 113 -90 306 -104 451 -34 78 38 179 142 219 225 50 105
68 209 54 315 -19 145 -69 250 -163 341 -49 47 -88 70 -176 103 -48 18 -72 21
-158 17 -85 -4 -110 -9 -156 -32 -30 -16 -67 -40 -82 -54 -16 -14 -28 -22 -28
-16 -1 5 0 114 0 242 0 127 -3 232 -7 232 -4 0 -72 -37 -150 -82z m503 -596
c101 -52 146 -172 110 -295 -31 -107 -103 -157 -226 -157 -106 0 -178 46 -217
137 -20 48 -16 160 7 211 52 115 207 165 326 104z"/>
<path d="M1140 4681 c-43 -14 -104 -57 -131 -92 -56 -74 -59 -97 -59 -389 l0
-270 88 45 c48 25 139 74 202 110 l115 65 261 0 c208 0 270 3 305 15 174 62
234 279 118 426 -17 21 -52 52 -77 67 l-47 27 -375 2 c-206 1 -386 -2 -400 -6z
m725 -122 c22 -6 54 -26 72 -46 29 -30 33 -41 33 -86 0 -62 -25 -108 -72 -134
-29 -16 -69 -19 -318 -23 l-285 -5 -100 -58 c-55 -31 -104 -57 -110 -57 -6 0
-9 60 -7 165 l3 166 39 39 c21 21 49 40 62 43 53 10 644 7 683 -4z"/>
<path d="M4117 4425 c-183 -50 -329 -203 -366 -383 -38 -185 18 -394 136 -503
165 -153 441 -193 651 -94 64 30 182 124 182 145 0 5 -52 38 -115 75 l-116 67
-38 -25 c-108 -71 -266 -63 -348 19 -76 77 -88 74 306 74 309 0 350 2 355 16
11 29 6 188 -8 240 -64 240 -252 385 -498 383 -51 0 -115 -7 -141 -14z m203
-256 c52 -12 104 -49 131 -93 35 -57 38 -56 -191 -56 -115 0 -210 2 -210 5 0
3 9 23 20 45 44 85 141 124 250 99z"/>
<path d="M5190 4422 c-102 -34 -165 -78 -229 -159 -50 -63 -76 -115 -101 -204
-58 -210 22 -454 188 -576 91 -66 152 -86 267 -87 117 -1 180 17 249 70 l46
35 0 -41 0 -40 150 0 150 0 2 495 c2 272 1 495 -2 495 -3 1 -70 1 -150 2
l-145 0 -3 -41 -3 -41 -37 30 c-66 53 -127 73 -232 77 -73 2 -108 -1 -150 -15z
m257 -274 c60 -15 137 -87 152 -143 14 -50 14 -129 1 -176 -14 -50 -72 -114
-122 -134 -62 -24 -157 -22 -210 5 -89 45 -137 140 -124 247 19 158 144 241
303 201z"/>
<path d="M6512 4417 c-29 -12 -68 -36 -87 -54 l-34 -31 -3 40 -3 41 -145 -1
-145 -1 -3 -496 -2 -495 149 0 150 0 3 324 c3 310 4 326 24 352 37 51 70 68
127 68 60 0 99 -21 125 -68 15 -27 17 -73 20 -353 l3 -323 149 0 149 0 3 323
3 324 25 36 c14 20 39 42 55 49 42 18 115 15 147 -6 55 -36 58 -55 58 -405 l0
-321 150 0 150 0 0 348 c0 291 -3 357 -16 403 -50 168 -158 256 -329 266 -128
8 -210 -16 -280 -82 l-37 -35 -50 45 c-61 55 -124 75 -227 75 -55 -1 -91 -7
-129 -23z"/>
<path d="M8105 4430 c-54 -11 -146 -52 -192 -87 -207 -152 -270 -428 -155
-671 40 -84 139 -181 232 -225 211 -100 434 -65 606 96 130 121 183 316 139
505 -44 185 -199 338 -385 381 -52 12 -187 12 -245 1z m196 -291 c93 -28 149
-112 149 -222 0 -160 -124 -262 -277 -227 -144 32 -217 198 -148 337 14 28 34
58 44 67 56 51 150 69 232 45z"/>
<path d="M2180 4163 c-25 -14 -90 -51 -145 -81 -55 -30 -120 -67 -145 -81 -45
-26 -46 -26 -325 -31 -260 -5 -283 -7 -327 -27 -210 -97 -209 -397 2 -492 43
-19 64 -21 415 -21 368 0 370 0 420 24 54 25 88 58 126 121 23 39 24 48 27
265 2 124 2 253 0 287 l-3 61 -45 -25z m-80 -350 c0 -177 -8 -204 -72 -243
-32 -20 -48 -20 -385 -18 l-353 3 -36 37 c-31 30 -38 45 -42 89 -6 62 12 103
61 137 32 21 40 22 308 22 l274 0 115 64 c63 36 118 65 123 65 4 1 7 -70 7
-156z"/>
</g>
</svg>
